<svg width="960" height="960" viewBox="0 0 960 960" fill="none" xmlns="http://www.w3.org/2000/svg">
<g clip-path="url(#clip0_46_111)">
<g clip-path="url(#clip1_46_111)">
<path d="M683.953 606.036L683.978 606.302L680.812 920.402L233.212 914.449V905L665.912 908.483L672.789 606.771V606.758C676.518 606.618 680.242 606.39 683.953 606.036Z" fill="#171717"/>
<path d="M675.29 498.8L676.405 448.05L676.861 448.063L685.575 447.987L685.17 488.592L686.437 489.187C683.24 492.954 679.546 496.269 675.456 499.041L675.29 498.8Z" fill="#171717"/>
<path d="M519.849 160.979C509.236 161.055 498.533 155.736 492.669 146.832C492.412 151.594 491.056 156.231 488.707 160.38C486.358 164.53 483.079 168.079 479.128 170.749C475.177 173.419 470.661 175.137 465.935 175.769C461.209 176.401 456.4 175.929 451.887 174.391C455.555 178.193 458.3 182.789 459.907 187.822C461.515 192.855 461.943 198.19 461.158 203.415C460.373 208.64 458.397 213.614 455.381 217.952C452.366 222.291 448.392 225.877 443.769 228.434C447.617 231.054 450.663 234.692 452.566 238.941C454.469 243.19 455.154 247.884 454.547 252.5C454.262 254.405 453.742 256.268 453 258.045C451.593 261.446 449.459 264.498 446.747 266.986C444.034 269.474 440.81 271.337 437.3 272.445C447.685 283.312 450.928 300.182 446.14 314.345C445.201 317.173 443.925 319.877 442.34 322.4C432.74 337.649 412.26 345.045 395.124 339.447C398.088 354.164 397.315 370.034 390.375 383.347C383.435 396.66 369.705 406.866 354.697 407.158C339.689 407.45 324.592 396.241 322.705 381.358C314.156 393.973 296.767 399.786 282.353 394.846C279.172 393.747 276.181 392.161 273.487 390.146C263.987 383.146 257.987 371.275 258.77 359.433C259.758 344.222 271.828 330.417 286.76 327.403C276.109 322.742 270.422 309.963 272.005 298.45C273.588 286.937 281.327 276.906 290.914 270.32C300.501 263.734 311.814 260.162 323.122 257.452C316.677 250.861 312.247 242.567 310.353 233.546C308.458 224.524 309.178 215.149 312.427 206.522C315.676 197.895 321.319 190.375 328.694 184.844C336.069 179.314 344.869 176.003 354.061 175.3C339.509 169.347 331.884 151.413 335.582 136.126C339.28 120.839 352.629 108.959 367.752 104.615C382.875 100.271 399.352 102.741 413.803 108.947C412.309 88.163 429.825 67.874 450.608 66.316C471.391 64.758 491.732 82.236 493.328 103.016C497.728 93.745 508.982 89.046 519.165 90.249C529.348 91.452 538.403 97.62 545.357 105.156C556.54 117.289 563.291 134.451 559.618 150.536C555.945 166.621 539.924 179.983 523.618 177.513L521.818 177.969C520.488 172.404 519.827 166.7 519.849 160.979Z" fill="#171717"/>
<path d="M686.435 489.186L685.168 488.591L685.568 447.986L676.854 448.062L676.398 448.049L676.626 437.334L236.779 459.688L233.679 550.561L233.35 550.612C232.57 549.899 231.556 549.498 230.5 549.485C227.6 549.498 225.763 552.55 224.623 555.222C220.895 563.919 218.068 572.976 216.188 582.25C212.796 598.874 212.397 615.97 215.01 632.734C215.656 636.825 216.061 642.246 218.024 646.425L217.112 646.539C200.077 641.068 189.59 627.239 181.548 611.239C162.006 572.331 166.514 524.317 185.892 485.321C205.27 446.325 237.934 415.371 273.46 390.18L273.485 390.142C276.179 392.157 279.17 393.743 282.351 394.842C296.764 399.781 314.151 393.968 322.703 381.354C324.59 396.236 339.703 407.444 354.695 407.154C369.687 406.864 383.445 396.654 390.373 383.343C397.301 370.032 398.086 354.162 395.122 339.443C412.258 345.043 432.738 337.643 442.338 322.396C443.923 319.873 445.198 317.169 446.138 314.341L446.543 314.48C450.823 312.897 455.096 311.309 459.36 309.718L460.791 309.465C460.991 310.643 461.209 311.821 461.424 312.999C461.88 315.456 462.378 317.901 462.918 320.332C467.518 340.888 476.166 361.456 492.318 374.97C496.726 378.656 502.818 381.86 507.972 379.327C512.291 377.187 513.937 371.927 514.697 367.181C516.925 352.914 515.013 338.307 509.188 325.094C506.275 318.508 502.374 312.239 500.297 305.4C499.854 304.002 499.507 302.576 499.258 301.132C499.169 300.651 499.106 300.182 499.043 299.701H499.068C539.468 303.201 579.936 306.718 619.868 313.835C643.729 318.078 667.553 323.676 689.59 333.783C711.627 343.89 731.89 358.81 745.431 378.909C762.58 404.366 767.671 435.827 771.901 466.223C774.371 483.891 776.688 501.723 775.549 519.531C774.41 537.339 769.622 555.298 759.033 569.66C745.177 588.455 722.633 599.347 699.696 603.818C694.489 604.821 689.234 605.561 683.953 606.034C680.242 606.389 676.518 606.617 672.782 606.756C658.521 607.288 644.121 606.503 629.847 605.717C624.224 605.417 618.195 604.957 613.762 601.474C609.405 598.042 607.683 592.646 606.986 586.998C606.688 584.437 606.527 581.863 606.505 579.285C606.251 565.493 606.277 551.701 606.581 537.908C606.644 535.308 606.733 532.652 607.037 530.03C607.594 524.989 608.886 520.113 612.103 516.288C620.791 505.915 636.99 509.107 650.466 508.043C659.434 507.256 668.044 504.155 675.455 499.043C679.545 496.271 683.239 492.955 686.435 489.186Z" fill="url(#paint0_linear_46_111)"/>
<path d="M460.791 309.466L459.36 309.719C455.093 311.302 450.821 312.89 446.543 314.481L446.138 314.342C450.925 300.182 447.683 283.312 437.298 272.442C440.808 271.334 444.032 269.471 446.745 266.983C449.457 264.495 451.592 261.443 452.998 258.042C456.485 275.029 457.852 292.393 460.791 309.466Z" fill="#171717"/>
<path d="M412.676 658.685L475.04 598.259C475.04 598.259 440.907 646.349 412.676 686.232V658.685Z" fill="#171717"/>
<path d="M412.676 658.685V686.232C403.676 698.961 395.261 710.853 388.751 720.074H366.359C355.872 697.707 340.395 662.992 340.053 662.194L376.694 693.553L412.676 658.685Z" fill="#171717"/>
<path d="M366.359 720.074H388.751C381.038 731.017 375.997 738.211 375.794 738.616C375.5 739.211 371.539 731.156 366.359 720.074Z" fill="#171717"/>
<path d="M372.349 530.715C372.66 530.761 372.951 530.894 373.19 531.098C373.43 531.301 373.607 531.568 373.702 531.868C373.797 532.167 373.806 532.488 373.728 532.792C373.65 533.096 373.488 533.373 373.261 533.59L359.329 547.053C359.131 547.24 358.983 547.474 358.897 547.732C358.81 547.991 358.789 548.266 358.835 548.535L362.027 567.647C362.078 567.957 362.041 568.276 361.921 568.566C361.8 568.857 361.601 569.108 361.345 569.291C361.09 569.474 360.788 569.582 360.474 569.602C360.16 569.623 359.847 569.555 359.57 569.407L342.459 560.313C342.22 560.183 341.953 560.114 341.681 560.112C341.41 560.109 341.142 560.174 340.901 560.3L323.701 569.242C323.422 569.385 323.109 569.448 322.796 569.424C322.484 569.399 322.184 569.288 321.932 569.102C321.679 568.917 321.483 568.664 321.366 568.373C321.249 568.082 321.215 567.765 321.269 567.456L324.638 548.369C324.685 548.099 324.665 547.823 324.581 547.563C324.498 547.302 324.352 547.066 324.157 546.875L310.353 533.3C310.128 533.079 309.97 532.799 309.896 532.493C309.822 532.187 309.835 531.866 309.934 531.567C310.033 531.268 310.213 531.002 310.455 530.8C310.697 530.599 310.991 530.468 311.303 530.425L330.491 527.725C330.76 527.686 331.015 527.583 331.236 527.424C331.456 527.265 331.635 527.055 331.758 526.813L340.408 509.487C340.548 509.205 340.765 508.968 341.033 508.803C341.301 508.638 341.61 508.551 341.925 508.553C342.24 508.554 342.548 508.644 342.815 508.811C343.082 508.978 343.297 509.217 343.435 509.5L351.921 526.915C352.043 527.159 352.222 527.37 352.442 527.531C352.663 527.692 352.918 527.798 353.188 527.84L372.349 530.715Z" fill="url(#paint1_linear_46_111)"/>
<path d="M480.5 194.96C478.963 193.465 476.941 192.57 474.801 192.438C472.661 192.305 470.544 192.944 468.835 194.238" stroke="#171717" stroke-width="3.8" stroke-linecap="round" stroke-linejoin="round"/>
<path d="M508.273 196.948C508.833 196.184 509.549 195.548 510.374 195.082C511.199 194.617 512.113 194.333 513.057 194.249C514 194.165 514.951 194.283 515.845 194.595C516.739 194.908 517.556 195.408 518.241 196.061" stroke="#171717" stroke-width="3.8" stroke-linecap="round" stroke-linejoin="round"/>
<path d="M493.113 230.41C495.861 231.816 499.47 230.283 501.066 227.649C502.662 225.015 502.6 221.62 501.713 218.657C500.66 215.749 499.355 212.938 497.812 210.257C493.062 200.826 490.856 190.318 491.412 179.772C499.062 179.189 506.712 178.611 514.362 178.037" stroke="#171717" stroke-width="3.8" stroke-linecap="round" stroke-linejoin="round"/>
<path d="M466.668 247.014C467.267 248.915 468.296 250.654 469.674 252.094C471.053 253.534 472.744 254.638 474.617 255.32C476.491 256.002 478.496 256.244 480.478 256.027C482.459 255.81 484.365 255.139 486.046 254.068" stroke="#171717" stroke-width="3.8" stroke-linecap="round" stroke-linejoin="round"/>
<path d="M519.849 160.675V160.975C519.829 166.7 520.492 172.407 521.825 177.975C523.547 185.726 526.119 193.389 528.246 201.064C531.932 214.364 534.246 228.978 528.803 241.664C524.471 251.758 515.821 259.256 509.222 268.046C502.408 277.14 497.646 288.488 499.039 299.696C499.102 300.177 499.166 300.646 499.254 301.127C499.503 302.572 499.85 303.998 500.293 305.395C502.37 312.234 506.271 318.504 509.184 325.089C515.01 338.302 516.922 352.909 514.693 367.176C513.933 371.925 512.287 377.182 507.968 379.322C502.813 381.855 496.721 378.651 492.314 374.965C476.166 361.451 467.514 340.883 462.914 320.327C462.37 317.895 461.872 315.451 461.42 312.994C461.205 311.816 460.989 310.638 460.787 309.46C457.849 292.387 456.481 275.023 452.998 258.039C452.998 258.014 452.985 257.976 452.985 257.95" stroke="#171717" stroke-width="3.8" stroke-linecap="round" stroke-linejoin="round"/>
<path d="M528.347 159.7C525.589 160.528 522.727 160.959 519.847 160.979C509.234 161.055 498.531 155.736 492.667 146.832C492.572 146.706 492.483 146.575 492.401 146.439" stroke="#171717" stroke-width="3.8" stroke-linecap="round" stroke-linejoin="round"/>
<path d="M492.619 142.64C492.73 144.035 492.748 145.435 492.67 146.832C492.413 151.594 491.057 156.231 488.708 160.38C486.359 164.53 483.08 168.079 479.129 170.749C475.178 173.419 470.662 175.137 465.936 175.769C461.21 176.401 456.401 175.929 451.888 174.391C455.556 178.193 458.3 182.789 459.908 187.822C461.516 192.855 461.944 198.19 461.159 203.415C460.374 208.64 458.398 213.614 455.382 217.952C452.367 222.291 448.393 225.877 443.77 228.434C447.618 231.054 450.664 234.692 452.567 238.941C454.47 243.19 455.155 247.884 454.548 252.5C454.262 254.405 453.743 256.268 453 258.045C451.593 261.446 449.459 264.498 446.747 266.986C444.034 269.474 440.81 271.337 437.3 272.445C447.685 283.312 450.928 300.182 446.14 314.345C445.201 317.173 443.925 319.877 442.34 322.4C432.74 337.649 412.26 345.045 395.124 339.447C398.088 354.164 397.315 370.034 390.375 383.347C383.435 396.66 369.7 406.861 354.7 407.153C339.7 407.445 324.595 396.236 322.708 381.353C314.159 393.968 296.77 399.781 282.356 394.841C279.175 393.742 276.184 392.156 273.49 390.141C263.99 383.141 257.99 371.27 258.773 359.428C259.761 344.217 271.831 330.412 286.763 327.398C276.112 322.737 270.425 309.958 272.008 298.445C273.591 286.932 281.33 276.901 290.917 270.315C300.504 263.729 311.817 260.157 323.125 257.447C316.682 250.856 312.253 242.563 310.359 233.542C308.466 224.521 309.186 215.148 312.434 206.522C315.683 197.896 321.325 190.376 328.699 184.846C336.072 179.315 344.871 176.004 354.062 175.3C339.51 169.347 331.885 151.413 335.583 136.126C339.281 120.839 352.63 108.959 367.753 104.615C382.876 100.271 399.353 102.741 413.804 108.947C412.31 88.163 429.826 67.874 450.609 66.316C471.392 64.758 491.733 82.236 493.329 103.016C497.724 93.745 508.983 89.046 519.166 90.249C529.349 91.452 538.404 97.62 545.358 105.156C556.541 117.289 563.292 134.451 559.619 150.536C555.946 166.621 539.925 179.983 523.619 177.513" stroke="#171717" stroke-width="3.8" stroke-linecap="round" stroke-linejoin="round"/>
<path d="M462.007 312.886C468.077 316.156 475.091 317.231 481.861 315.927C488.632 314.623 494.745 311.021 499.167 305.73" stroke="#171717" stroke-width="3.8" stroke-linecap="round" stroke-linejoin="round"/>
<path d="M446.542 314.482C450.823 312.899 455.095 311.311 459.359 309.72" stroke="#171717" stroke-width="3.8" stroke-linecap="round" stroke-linejoin="round"/>
<path d="M273.459 390.182C237.933 415.373 205.269 446.327 185.891 485.323C166.513 524.319 162 572.333 181.547 611.241C189.589 627.241 200.076 641.068 217.111 646.541" stroke="#171717" stroke-width="3.8" stroke-linecap="round" stroke-linejoin="round"/>
<path d="M499.065 299.7C539.465 303.2 579.933 306.717 619.865 313.834C643.726 318.077 667.55 323.675 689.587 333.782C711.624 343.889 731.887 358.809 745.428 378.908C762.577 404.365 767.668 435.826 771.898 466.222C774.368 483.89 776.685 501.722 775.546 519.53C774.407 537.338 769.62 555.3 759.031 569.66C745.175 588.46 722.631 599.347 699.694 603.818C694.487 604.821 689.233 605.561 683.951 606.034C680.24 606.389 676.516 606.617 672.78 606.756C658.519 607.288 644.119 606.503 629.845 605.717C624.222 605.417 618.193 604.957 613.76 601.474C609.403 598.042 607.681 592.646 606.984 586.998C606.687 584.437 606.526 581.863 606.503 579.285C606.25 565.493 606.275 551.701 606.579 537.908C606.642 535.308 606.731 532.652 607.035 530.03C607.592 524.989 608.884 520.113 612.101 516.288C620.789 505.915 636.988 509.107 650.464 508.043C659.433 507.256 668.043 504.155 675.453 499.043C679.543 496.271 683.237 492.956 686.434 489.189C690.537 484.375 693.707 478.838 695.781 472.863" stroke="#171717" stroke-width="3.8" stroke-linecap="round" stroke-linejoin="round"/>
<path d="M230.106 655.329L221.582 904.91L233.209 904.999L665.905 908.482L672.782 606.77" stroke="#171717" stroke-width="3.8" stroke-linecap="round" stroke-linejoin="round"/>
<path d="M675.29 498.799L676.404 448.049L676.632 437.335L236.781 459.689L233.678 550.562" stroke="#171717" stroke-width="3.8" stroke-linecap="round" stroke-linejoin="round"/>
<path d="M685.168 488.591L685.574 447.986L676.86 448.062" stroke="#171717" stroke-width="3.8" stroke-linecap="round" stroke-linejoin="round"/>
<path d="M233.209 905.506V914.447L680.812 920.4L683.978 606.302" stroke="#171717" stroke-width="3.8" stroke-linecap="round" stroke-linejoin="round"/>
<path d="M555.046 566.583C548.865 566.254 543.191 566.283 531.946 567.444C528.946 567.744 525.841 568.128 523.27 569.698C520.699 571.268 518.799 574.371 519.597 577.272C520.797 581.679 526.563 582.566 531.135 582.579C562.33 582.706 574.526 585.353 605.708 585.479" stroke="#171717" stroke-width="3.8" stroke-linecap="round" stroke-linejoin="round"/>
<path d="M556.287 566.659C555.92 566.634 555.553 566.608 555.188 566.596" stroke="#171717" stroke-width="3.8" stroke-linecap="round" stroke-linejoin="round"/>
<path d="M558.4 566.786C557.969 566.761 557.526 566.723 557.108 566.71" stroke="#171717" stroke-width="3.8" stroke-linecap="round" stroke-linejoin="round"/>
<path d="M560 566.887C559.493 566.849 559.012 566.824 558.531 566.798" stroke="#171717" stroke-width="3.8" stroke-linecap="round" stroke-linejoin="round"/>
<path d="M575.272 567.635L574.2 567.6C569.349 567.448 565.55 567.245 562.295 567.03" stroke="#171717" stroke-width="3.8" stroke-linecap="round" stroke-linejoin="round"/>
<path d="M562.29 567.027C565.71 567.204 569.573 567.407 574.195 567.597" stroke="#171717" stroke-width="3.8" stroke-linecap="round" stroke-linejoin="round"/>
<path d="M562.29 567.027L561.112 566.951C560.985 566.951 560.871 566.938 560.745 566.938C560.713 566.928 560.679 566.924 560.645 566.925L559.999 566.887" stroke="#171717" stroke-width="3.8" stroke-linecap="round" stroke-linejoin="round"/>
<path d="M558.529 566.8C559.01 566.838 559.492 566.863 559.998 566.889" stroke="#171717" stroke-width="3.8" stroke-linecap="round" stroke-linejoin="round"/>
<path d="M558.529 566.8C558.488 566.789 558.445 566.785 558.402 566.787" stroke="#171717" stroke-width="3.8" stroke-linecap="round" stroke-linejoin="round"/>
<path d="M557.11 566.71C557.528 566.748 557.959 566.773 558.402 566.786" stroke="#171717" stroke-width="3.8" stroke-linecap="round" stroke-linejoin="round"/>
<path d="M557.11 566.71C556.831 566.697 556.553 566.685 556.287 566.659" stroke="#171717" stroke-width="3.8" stroke-linecap="round" stroke-linejoin="round"/>
<path d="M555.185 566.6C555.552 566.625 555.907 566.651 556.285 566.663" stroke="#171717" stroke-width="3.8" stroke-linecap="round" stroke-linejoin="round"/>
<path d="M555.185 566.6C555.147 566.6 555.096 566.587 555.046 566.587" stroke="#171717" stroke-width="3.8" stroke-linecap="round" stroke-linejoin="round"/>
<path d="M542.368 549C537.429 549.4 531.805 550.064 524.016 551.178C520.153 551.735 515.188 553.66 515.632 557.536C516.05 561.12 520.698 564.705 524.295 564.844C538.873 565.427 546.029 565.997 555.046 566.579" stroke="#171717" stroke-width="3.8" stroke-linecap="round" stroke-linejoin="round"/>
<path d="M558.136 548.308C552.449 548.408 547.877 548.549 542.536 548.992" stroke="#171717" stroke-width="3.8" stroke-linecap="round" stroke-linejoin="round"/>
<path d="M558.351 548.308C563.451 548.108 568.774 547.966 574.208 548.042C567.7 548.181 562.7 548.244 558.351 548.308Z" stroke="#171717" stroke-width="3.8" stroke-linecap="round" stroke-linejoin="round"/>
<path d="M558.351 548.308C558.28 548.321 558.207 548.321 558.136 548.308" stroke="#171717" stroke-width="3.8" stroke-linecap="round" stroke-linejoin="round"/>
<path d="M542.532 548.991C547.383 548.826 552.626 548.535 558.132 548.307" stroke="#171717" stroke-width="3.8" stroke-linecap="round" stroke-linejoin="round"/>
<path d="M542.532 548.991C542.478 549.001 542.422 549.006 542.367 549.004" stroke="#171717" stroke-width="3.8" stroke-linecap="round" stroke-linejoin="round"/>
<path d="M607.29 530.4C607.201 530.273 607.125 530.147 607.037 530.033C598.307 517.275 586.853 506.616 573.5 498.825C570.283 496.938 565.255 495.709 563.6 499.04C562.422 501.408 564.107 504.131 565.728 506.221C571.528 513.744 577.328 521.263 583.128 528.778C559.178 527.208 554.036 526.068 530.428 530.399C526.616 531.108 522.702 531.932 519.511 534.11C516.32 536.288 512.051 541.215 514.749 543.989C519.612 548.966 529.631 549.435 542.372 549.004" stroke="#171717" stroke-width="3.8" stroke-linecap="round" stroke-linejoin="round"/>
<path d="M262.947 627.744C269.091 626.592 275.293 625.78 281.527 625.312C284.727 625.071 288.189 624.97 290.912 626.68C295.623 629.644 295.826 636.939 292.647 641.511C289.468 646.083 284.047 648.49 278.779 650.275C266.168 654.507 252.898 656.429 239.605 655.949C236.452 655.856 233.314 655.47 230.233 654.796C226.573 653.935 223.052 652.504 220.569 650.11C219.504 649.045 218.641 647.797 218.023 646.424C216.06 642.244 215.655 636.824 215.009 632.733C212.397 615.969 212.795 598.873 216.187 582.249C218.068 572.975 220.894 563.918 224.622 555.221C225.762 552.549 227.598 549.496 230.499 549.484C231.555 549.497 232.569 549.898 233.349 550.611C234.153 551.315 234.763 552.213 235.122 553.22C235.692 555.258 235.847 557.39 235.578 559.489C234.804 571.306 234.036 583.123 233.273 594.939C247.53 590.193 262.488 587.893 277.513 588.139C281.713 588.202 287.025 589.355 287.848 593.484C288.317 595.878 286.885 598.335 284.91 599.766C282.838 601.072 280.539 601.978 278.134 602.438C267.027 605.25 255.911 608.07 244.786 610.898" stroke="#171717" stroke-width="3.8" stroke-linecap="round" stroke-linejoin="round"/>
<path d="M262.947 627.744C257.856 629.023 252.743 630.213 247.609 631.316C252.663 629.9 257.78 628.694 262.947 627.744Z" stroke="#171717" stroke-width="3.8" stroke-linecap="round" stroke-linejoin="round"/>
<path d="M242.518 611.469C243.278 611.279 244.025 611.089 244.785 610.899C256.142 608.132 267.713 606.331 279.374 605.516C282.236 605.316 285.2 605.187 287.923 606.124C290.646 607.061 293.09 609.316 293.432 612.165C293.732 614.825 292.165 617.408 290.038 619.03C287.813 620.528 285.342 621.621 282.738 622.26C276.19 624.236 269.59 626.064 262.938 627.744" stroke="#171717" stroke-width="3.8" stroke-linecap="round" stroke-linejoin="round"/>
<path d="M359.57 569.408L342.459 560.314C342.22 560.184 341.953 560.115 341.681 560.113C341.41 560.11 341.142 560.175 340.901 560.301L323.701 569.243C323.422 569.386 323.109 569.449 322.796 569.425C322.484 569.4 322.184 569.289 321.932 569.103C321.679 568.918 321.483 568.665 321.366 568.374C321.249 568.083 321.215 567.766 321.269 567.457L324.638 548.37C324.685 548.1 324.665 547.824 324.581 547.564C324.498 547.303 324.352 547.067 324.157 546.876L310.353 533.3C310.128 533.079 309.97 532.799 309.896 532.493C309.822 532.187 309.835 531.866 309.934 531.567C310.033 531.268 310.213 531.002 310.455 530.8C310.697 530.599 310.991 530.468 311.303 530.425L330.491 527.725C330.76 527.686 331.015 527.583 331.236 527.424C331.456 527.265 331.635 527.055 331.758 526.813L340.408 509.487C340.548 509.205 340.765 508.968 341.033 508.803C341.301 508.638 341.61 508.551 341.925 508.553C342.24 508.554 342.548 508.644 342.815 508.811C343.082 508.978 343.297 509.217 343.435 509.5L351.921 526.915C352.043 527.159 352.222 527.37 352.442 527.531C352.663 527.692 352.918 527.798 353.188 527.84L372.351 530.715C372.662 530.761 372.953 530.894 373.192 531.098C373.432 531.301 373.609 531.568 373.704 531.868C373.799 532.167 373.808 532.488 373.73 532.792C373.652 533.096 373.49 533.373 373.263 533.59L359.331 547.053C359.133 547.24 358.985 547.474 358.899 547.732C358.812 547.991 358.791 548.266 358.837 548.535L362.029 567.647C362.08 567.957 362.043 568.276 361.922 568.566C361.801 568.857 361.602 569.108 361.346 569.291C361.09 569.474 360.789 569.582 360.475 569.603C360.161 569.623 359.847 569.556 359.57 569.408Z" stroke="#171717" stroke-width="3.8" stroke-linecap="round" stroke-linejoin="round"/>
<path d="M366.359 720.074H335.228C333.953 720.072 332.731 719.564 331.831 718.661C330.931 717.759 330.426 716.536 330.428 715.261V638.155C330.428 636.882 330.933 635.661 331.834 634.761C332.734 633.861 333.955 633.355 335.228 633.355H407.876C409.149 633.355 410.37 633.861 411.27 634.761C412.17 635.661 412.676 636.882 412.676 638.155V658.685" stroke="#171717" stroke-width="3.8" stroke-linecap="round" stroke-linejoin="round"/>
<path d="M412.676 686.232V715.261C412.677 716.536 412.172 717.759 411.272 718.661C410.372 719.564 409.151 720.072 407.876 720.074H388.751" stroke="#171717" stroke-width="3.8" stroke-linecap="round" stroke-linejoin="round"/>
<path d="M407.875 847.993H335.227C333.952 847.991 332.73 847.483 331.83 846.58C330.93 845.678 330.425 844.455 330.427 843.18V766.074C330.427 764.801 330.932 763.58 331.833 762.68C332.733 761.78 333.954 761.274 335.227 761.274H407.875C409.148 761.274 410.369 761.78 411.269 762.68C412.169 763.58 412.675 764.801 412.675 766.074V843.18C412.676 844.455 412.172 845.678 411.271 846.58C410.371 847.483 409.149 847.991 407.875 847.993Z" stroke="#171717" stroke-width="3.8" stroke-linecap="round" stroke-linejoin="round"/>
<path d="M499.964 664.942C500.04 665.119 500.103 665.284 500.179 665.461C503.7 673.579 514.845 677.278 522.533 672.861C526.396 670.645 529.144 666.908 532.716 664.223C536.288 661.538 541.582 660.107 545.052 662.931C548.472 665.717 548.434 671.315 551.815 674.178C555.235 677.066 560.807 675.685 563.872 672.418C566.937 669.151 568.153 664.604 569.255 660.247C578.323 672.38 596.637 676.408 609.961 669.214" stroke="#171717" stroke-width="3.8" stroke-linecap="round" stroke-linejoin="round"/>
<path d="M499.964 664.942C505.45 659.231 508.973 651.92 510.02 644.07C501.738 646.615 496.862 656.887 499.964 664.942Z" stroke="#171717" stroke-width="3.8" stroke-linecap="round" stroke-linejoin="round"/>
<path d="M460.183 673.618C465.391 675.625 470.985 676.435 476.549 675.988C482.113 675.54 487.505 673.847 492.327 671.034C495.143 669.368 497.713 667.317 499.964 664.942" stroke="#171717" stroke-width="3.8" stroke-linecap="round" stroke-linejoin="round"/>
<path d="M593.675 778.954C593.849 780.34 594.261 781.685 594.891 782.931C596.12 785.249 598.729 787.047 601.3 786.531C603.871 786.015 605.53 782.44 603.744 780.515" stroke="#171717" stroke-width="3.8" stroke-linecap="round" stroke-linejoin="round"/>
<path d="M593.675 778.954C593.754 777.713 593.656 776.467 593.384 775.254C593.417 776.491 593.514 777.726 593.675 778.954V778.954Z" stroke="#171717" stroke-width="3.8" stroke-linecap="round" stroke-linejoin="round"/>
<path d="M578.033 799.941C581.427 797.091 584.986 794.441 587.95 791.164C591.015 787.77 593.409 783.413 593.675 778.955" stroke="#171717" stroke-width="3.8" stroke-linecap="round" stroke-linejoin="round"/>
<path d="M578.033 799.941C578.963 812.598 578.003 825.322 575.183 837.696C574.018 842.775 570.662 849.006 565.583 847.896C561.483 846.984 560.083 841.842 560.048 837.637C560.034 831.123 561.339 824.673 563.883 818.677C566.428 812.68 570.16 807.26 574.854 802.744C575.88 801.765 576.944 800.84 578.033 799.941Z" stroke="#171717" stroke-width="3.8" stroke-linecap="round" stroke-linejoin="round"/>
<path d="M503.536 801.8C503.663 801.825 503.802 801.851 503.929 801.863C509.274 802.563 514.682 800.217 518.671 796.607C527.321 799.913 536.263 793.099 543.026 786.766C541.962 792.288 547.18 797.658 552.791 798.089C558.402 798.52 563.734 795.049 567.077 790.515C570.42 785.981 572.13 780.484 573.777 775.101C576.016 783.218 577.442 791.538 578.032 799.938" stroke="#171717" stroke-width="3.8" stroke-linecap="round" stroke-linejoin="round"/>
<path d="M503.536 801.8C506.497 800.053 508.728 797.296 509.818 794.036C511.418 788.717 508.096 781.979 502.586 781.32C497.241 780.674 492.428 786.259 493.024 791.62C493.594 796.838 498.356 800.979 503.536 801.8Z" stroke="#171717" stroke-width="3.8" stroke-linecap="round" stroke-linejoin="round"/>
<path d="M450.722 803.259C460.842 803.436 470.953 803.921 481.055 804.716C486.59 805.147 492.255 805.666 497.634 804.316C499.721 803.799 501.713 802.953 503.534 801.808" stroke="#171717" stroke-width="3.8" stroke-linecap="round" stroke-linejoin="round"/>
<path d="M471.544 547.079C472.57 546.37 473.596 545.66 474.609 544.939C479.333 541.545 483.918 537.439 485.856 531.957" stroke="#171717" stroke-width="3.8" stroke-linecap="round" stroke-linejoin="round"/>
<path d="M471.544 547.079C472.705 552.539 473.551 558.062 474.077 563.62C474.546 568.471 474.406 574.183 470.531 577.134C465.896 580.655 458.461 577.261 456.561 571.764C454.661 566.267 457.08 560.064 460.931 555.704C463.957 552.272 467.757 549.675 471.544 547.079Z" stroke="#171717" stroke-width="3.8" stroke-linecap="round" stroke-linejoin="round"/>
<path d="M417.5 532.894C417.538 533.173 417.589 533.439 417.639 533.705C419.096 541.051 423.351 549.081 430.773 550.132C435.092 550.753 439.461 548.701 442.653 545.712C445.845 542.723 448.048 538.86 450.227 535.073C451.05 538.847 456.37 539.987 459.727 538.049C463.084 536.111 464.844 532.362 466.427 528.829C468.517 534.798 470.226 540.894 471.544 547.08" stroke="#171717" stroke-width="3.8" stroke-linecap="round" stroke-linejoin="round"/>
<path d="M417.5 532.894C420.581 524.244 421.319 514.932 419.64 505.904C416.596 514.563 415.859 523.864 417.5 532.894V532.894Z" stroke="#171717" stroke-width="3.8" stroke-linecap="round" stroke-linejoin="round"/>
<path d="M407.749 549.612C412.034 544.711 415.344 539.037 417.501 532.894" stroke="#171717" stroke-width="3.8" stroke-linecap="round" stroke-linejoin="round"/>
<path d="M444.787 314.942C447.816 332.619 453.707 349.683 462.228 365.464C468.651 377.349 477.033 388.871 489.101 394.944C501.169 401.017 517.587 400.056 526.311 389.744C533.663 381.051 533.885 368.472 532.585 357.161C530.413 338.332 525.097 320.001 516.858 302.932" stroke="#171717" stroke-width="3.8" stroke-linecap="round" stroke-linejoin="round"/>
<path d="M630.2 509.064C627.621 541.157 629.088 573.446 634.567 605.173" stroke="#171717" stroke-width="3.8" stroke-linecap="round" stroke-linejoin="round"/>
<path d="M231.662 539.049C202.654 559.163 187.742 597.67 195.636 632.075" stroke="#171717" stroke-width="3.8" stroke-linecap="round" stroke-linejoin="round"/>
<path d="M113.473 580.981C92.9566 637.2 97.0736 701.924 124.546 755.088C129.982 765.608 137.921 776.778 149.698 778.009C157.798 778.856 165.836 774.419 170.832 767.99C175.828 761.561 178.132 753.407 179.064 745.318C179.88 738.218 178.694 729.375 172.082 726.658C166.048 724.179 159.306 728.611 155.434 733.858C147.223 744.991 145.986 759.881 147.703 773.608C149.42 787.335 153.749 800.628 155.55 814.344C157.351 828.06 156.306 842.934 148.302 854.217C140.298 865.5 123.765 871.417 111.953 864.217" stroke="#171717" stroke-width="3.8" stroke-linecap="round" stroke-linejoin="round"/>
<path d="M873.178 536.652C871.345 526.027 859.292 519.221 848.634 520.852C837.976 522.483 829.257 530.773 824.415 540.406C819.573 550.039 818.015 560.948 816.806 571.662C813.471 601.362 813.084 633.862 830.455 658.177C834.514 663.86 840.273 669.288 847.255 669.306C853.593 669.322 859.189 664.698 862.264 659.155C868.164 648.519 865.864 633.994 856.964 625.702C848.064 617.41 833.413 616.142 823.22 622.78C810.202 631.258 806.736 648.825 807.256 664.351C807.776 679.877 811.042 695.764 806.811 710.712C800.851 731.773 778.833 747.044 757.019 745.247" stroke="#171717" stroke-width="3.8" stroke-linecap="round" stroke-linejoin="round"/>
<path d="M753.521 266.578C755.597 274.803 757.673 283.028 759.748 291.253C770.413 278.168 782.331 266.157 795.332 255.391" stroke="#171717" stroke-width="3.8" stroke-linecap="round" stroke-linejoin="round"/>
<path d="M197.331 288.427C201.695 289.689 205.759 291.818 209.28 294.687C212.801 297.557 215.707 301.108 217.823 305.127C223.791 283.456 231.824 262.406 241.812 242.269" stroke="#171717" stroke-width="3.8" stroke-linecap="round" stroke-linejoin="round"/>
<path d="M210.939 246.842L201.107 234.324" stroke="#171717" stroke-width="3.8" stroke-linecap="round" stroke-linejoin="round"/>
<path d="M198.33 246.01L213.693 230.076" stroke="#171717" stroke-width="3.8" stroke-linecap="round" stroke-linejoin="round"/>
<path d="M603.233 146.656L625.282 130.156" stroke="#171717" stroke-width="3.8" stroke-linecap="round" stroke-linejoin="round"/>
<path d="M619.341 151.288L608.758 129.76" stroke="#171717" stroke-width="3.8" stroke-linecap="round" stroke-linejoin="round"/>
<path d="M509.829 54.5661L525.929 45.6331" stroke="#171717" stroke-width="3.8" stroke-linecap="round" stroke-linejoin="round"/>
<path d="M519.457 58.407C516.563 52.407 513.667 46.407 510.771 40.407" stroke="#171717" stroke-width="3.8" stroke-linecap="round" stroke-linejoin="round"/>
<path d="M640.6 81.8001L653.818 95.6501C661.802 82.9217 670.634 70.7458 680.256 59.2051" stroke="#171717" stroke-width="3.8" stroke-linecap="round" stroke-linejoin="round"/>
<path d="M100.729 773.688C96.1268 770.003 92.3171 765.425 89.5293 760.229L91.0563 761.865" stroke="#171717" stroke-width="3.8" stroke-linecap="round" stroke-linejoin="round"/>
<path d="M87.125 775.893L98.9 760.814" stroke="#171717" stroke-width="3.8" stroke-linecap="round" stroke-linejoin="round"/>
<path d="M855.308 701.789L869.647 691.108" stroke="#171717" stroke-width="3.8" stroke-linecap="round" stroke-linejoin="round"/>
<path d="M866.167 704.647L856.333 692.131" stroke="#171717" stroke-width="3.8" stroke-linecap="round" stroke-linejoin="round"/>
<path d="M851.537 572.89L862.437 562.337" stroke="#171717" stroke-width="3.8" stroke-linecap="round" stroke-linejoin="round"/>
<path d="M860.753 572.364C858.491 568.759 855.423 565.729 851.79 563.512" stroke="#171717" stroke-width="3.8" stroke-linecap="round" stroke-linejoin="round"/>
<path d="M606.9 367.305C605.708 364.921 589.02 345.253 589.02 345.253L583.656 379.226L606.9 367.305Z" stroke="#171717" stroke-width="3.8" stroke-linecap="round" stroke-linejoin="round"/>
<path d="M704.648 408.429C702.86 410.217 683.788 417.369 683.788 417.369L686.768 385.184L704.648 408.429Z" stroke="#171717" stroke-width="3.8" stroke-linecap="round" stroke-linejoin="round"/>
<path d="M729.085 543.724L712.992 559.816L704.052 535.38L729.085 543.724Z" stroke="#171717" stroke-width="3.8" stroke-linecap="round" stroke-linejoin="round"/>
<path d="M739.813 463.858C739.213 465.646 726.701 476.374 726.701 476.374L719.549 456.11L739.813 463.858Z" stroke="#171717" stroke-width="3.8" stroke-linecap="round" stroke-linejoin="round"/>
<path d="M465.647 415.582C465.047 413.794 452.535 403.662 452.535 403.662L450.151 427.502L465.647 415.582Z" stroke="#171717" stroke-width="3.8" stroke-linecap="round" stroke-linejoin="round"/>
<path d="M425.715 370.285L407.238 390.549L409.622 356.576L425.715 370.285Z" stroke="#171717" stroke-width="3.8" stroke-linecap="round" stroke-linejoin="round"/>
<path d="M323.2 427.5C320.816 424.52 304.724 409.62 304.724 409.62L302.34 438.229L323.2 427.5Z" stroke="#171717" stroke-width="3.8" stroke-linecap="round" stroke-linejoin="round"/>
<path d="M217.706 485.315C215.918 484.715 198.634 484.715 198.634 484.715L206.382 500.807L217.706 485.315Z" stroke="#171717" stroke-width="3.8" stroke-linecap="round" stroke-linejoin="round"/>
<path d="M578.89 413.793L569.949 429.29L556.241 411.409L578.89 413.793Z" stroke="#171717" stroke-width="3.8" stroke-linecap="round" stroke-linejoin="round"/>
<path d="M592.09 56.9001L603.574 63.8761C603.721 63.9658 603.838 64.0984 603.907 64.2562C603.977 64.414 603.997 64.5894 603.965 64.7588C603.932 64.9282 603.848 65.0836 603.725 65.2041C603.601 65.3247 603.444 65.4045 603.274 65.4331L590.01 67.6001C589.845 67.627 589.692 67.7022 589.57 67.8161C589.448 67.93 589.362 68.0776 589.324 68.2401L586.238 81.3181C586.198 81.4863 586.108 81.6384 585.979 81.7538C585.851 81.8692 585.69 81.9423 585.518 81.9633C585.347 81.9844 585.173 81.9523 585.02 81.8714C584.867 81.7905 584.743 81.6648 584.664 81.5111L578.506 69.5681C578.429 69.4196 578.31 69.2971 578.164 69.2161C578.018 69.1351 577.851 69.0993 577.685 69.1131L564.293 70.2191C564.121 70.2334 563.948 70.1945 563.799 70.1078C563.649 70.0211 563.53 69.8906 563.457 69.734C563.384 69.5775 563.361 69.4022 563.39 69.232C563.42 69.0618 563.501 68.9048 563.623 68.7821L573.079 59.2351C573.196 59.1164 573.276 58.9656 573.308 58.8017C573.34 58.6378 573.322 58.4681 573.258 58.3141L568.068 45.9201C568.001 45.7607 567.985 45.5848 568.022 45.4159C568.058 45.2471 568.145 45.0935 568.272 44.9757C568.398 44.8579 568.557 44.7815 568.728 44.7569C568.899 44.7323 569.073 44.7607 569.228 44.8381L581.228 50.8811C581.377 50.9561 581.545 50.9853 581.711 50.965C581.877 50.9448 582.033 50.8759 582.16 50.7671L592.346 42.0001C592.477 41.8872 592.639 41.8171 592.811 41.7994C592.983 41.7816 593.156 41.8171 593.308 41.9009C593.459 41.9847 593.581 42.1129 593.657 42.2682C593.733 42.4234 593.759 42.5982 593.733 42.7691L591.7 56.0521C591.674 56.2162 591.697 56.3843 591.766 56.5353C591.835 56.6863 591.948 56.8132 592.09 56.9001V56.9001Z" fill="#171717"/>
<g opacity="0.1">
<path d="M458.783 180.309C464.038 189.753 465.755 201.688 458.668 210.484C454.998 215.04 450.668 218.632 448.544 224.26C446.007 230.999 447.289 237.931 448.17 244.86L450.763 265.278C451.679 272.489 453.563 279.39 454.975 286.506C457.614 299.795 459.253 313.949 466.26 325.774C466.303 325.844 466.366 325.899 466.44 325.935C466.514 325.97 466.596 325.983 466.678 325.972C466.759 325.962 466.836 325.928 466.898 325.875C466.961 325.822 467.007 325.752 467.031 325.674C470.959 312.129 468.82 297.629 468.079 283.753C467.679 276.227 467.627 268.881 466.679 261.39C465.771 254.263 464.864 247.133 463.959 240C463.118 233.454 461.528 227.4 464.859 221.35C467.639 216.312 469.859 211.898 471.073 206.213C473.305 195.774 470.773 184.525 462.533 177.413C460.527 175.681 457.406 177.843 458.778 180.313L458.783 180.309Z" fill="#171717"/>
</g>
<g opacity="0.1">
<path d="M275.081 390.814C265.521 392.957 257.466 399.462 249.92 405.485C242.24 411.618 234.805 418.066 227.745 424.906C213.45 438.721 201.031 454.353 190.805 471.4C170.579 505.346 161.134 546.332 170.652 585.209C175.598 605.409 185.507 625.462 201.283 639.388C210.843 647.827 222.895 635.257 215.072 625.599C194.272 599.919 184.887 567.699 189.452 534.811C194.378 499.325 213.181 467.582 237.013 441.511C244.025 433.846 251.421 426.543 259.174 419.628C266.7 412.906 275.374 406.658 280.48 397.838C282.644 394.102 279.08 389.917 275.08 390.815L275.081 390.814Z" fill="#171717"/>
</g>
<g opacity="0.1">
<path d="M613.319 538.673C614.679 533.929 616.424 530.38 621.407 528.427C626.176 526.558 632.234 526.249 637.301 526.066C650.583 525.584 662.935 525.55 675.247 519.908C685.452 515.268 694.118 507.809 700.225 498.408C703.206 493.781 705.332 488.657 706.502 483.279C707.516 477.988 708.471 471.402 704.825 467.051C703.996 466.226 702.917 465.698 701.756 465.548C700.596 465.398 699.418 465.635 698.406 466.223C694.44 468.777 692.634 474.653 690.306 478.708C687.89 482.901 685.041 486.829 681.806 490.428C675.09 497.973 666.88 503.328 656.888 505.313C644.553 507.765 629.959 504.491 619.088 512.446C611.907 517.699 603.911 529.324 607.541 538.678C608.565 541.319 612.454 541.723 613.326 538.678L613.319 538.673Z" fill="#171717"/>
</g>
</g>
</g>
<defs>
<linearGradient id="paint0_linear_46_111" x1="472.392" y1="299.701" x2="472.392" y2="646.539" gradientUnits="userSpaceOnUse">
<stop stop-color="#FFB800"/>
<stop offset="1" stop-color="#FF7F0A"/>
</linearGradient>
<linearGradient id="paint1_linear_46_111" x1="341.814" y1="508.553" x2="341.814" y2="569.606" gradientUnits="userSpaceOnUse">
<stop stop-color="#FFB800"/>
<stop offset="1" stop-color="#FF7F0A"/>
</linearGradient>
<clipPath id="clip0_46_111">
<rect width="960" height="960" fill="white"/>
</clipPath>
<clipPath id="clip1_46_111">
<rect width="791" height="885" fill="white" transform="translate(85 38)"/>
</clipPath>
</defs>
</svg>
