<svg width="960" height="960" viewBox="0 0 960 960" fill="none" xmlns="http://www.w3.org/2000/svg">
<g clip-path="url(#clip0_435_1283)">
<path fill-rule="evenodd" clip-rule="evenodd" d="M291.006 439.578L337.935 466.713L334.345 430.475L309.313 177.568L362.676 161.073C362.676 161.073 367.061 201.336 364.14 211.044C362.773 215.589 357.9 221.941 353.053 228.258C347.548 235.434 342.077 242.566 341.819 246.952C341.597 253.422 341.759 259.9 342.304 266.352C359.059 268.57 375.983 269.249 392.862 268.383L392.762 266.352L384.515 161.07C384.515 161.07 383.535 149.412 378.205 144.57C372.875 139.728 362.195 131.95 352.493 129.528C342.791 127.106 304.47 123.23 291.851 131.962C279.232 140.694 272.685 148.457 270.5 172.231C269.613 181.922 268.809 225.811 268.159 274.39C267.223 344.97 266.623 425.478 266.623 425.478L291.006 439.578ZM350.35 130.899C349.535 130.75 348.754 131.29 348.605 132.105C348.456 132.92 348.995 133.701 349.81 133.851C354.553 134.718 359.078 136.518 363.121 139.146C367.164 141.773 370.645 145.177 373.364 149.159C376.083 153.142 377.985 157.624 378.96 162.346C379.934 167.069 379.963 171.937 379.044 176.671C378.886 177.484 379.417 178.272 380.23 178.429C381.043 178.587 381.831 178.056 381.989 177.243C382.984 172.12 382.953 166.851 381.898 161.74C380.842 156.629 378.784 151.778 375.842 147.468C372.899 143.158 369.131 139.474 364.755 136.63C360.38 133.786 355.483 131.838 350.35 130.899Z" fill="#171717"/>
<path d="M505.334 691.175H709.167L607.657 451.083L505.334 691.175ZM357.617 883.224C367.38 881.358 376.017 875.574 383.174 867.439L413.258 872.8L411.474 812.159L540.779 517.951C565.759 461.557 593.152 401.936 614.905 343.934H640.69L835.656 801.55C842.904 817.664 851.77 839.418 861.441 856.336C870.297 871.646 879.163 882.11 893.669 883.729L921.062 886.141L921.051 910.317C885.607 909.499 850.162 907.899 813.9 907.899C785.7 907.899 750.248 909.507 706.751 910.321V886.141L744.608 883.729C761.537 882.929 777.641 877.285 777.641 867.615C777.641 856.336 768.785 835.387 760.722 816.046L723.672 723.399H491.643L469.075 777.37C461.827 794.298 440.875 848.27 440.875 861.17C440.875 878.088 454.575 881.305 479.546 883.728L509.362 886.14V910.316C470.69 909.502 440.07 907.894 416.709 907.894C385.285 907.894 354.675 909.502 324.056 910.316V886.141L353.871 883.729C355.127 883.624 356.377 883.455 357.617 883.224V883.224Z" fill="#171717"/>
<path d="M411.474 812.16L413.258 872.801L383.174 867.44C389.114 860.519 393.908 852.691 397.374 844.254L411.474 812.16Z" fill="#171717"/>
<path d="M400.072 424.299L411.472 812.16L397.372 844.254C393.906 852.69 389.112 860.518 383.172 867.44L357.759 862.914L355.408 862.492L332.358 484.177L305.158 871.945L293.023 868.769L253.042 858.284H253.032C251.383 839.634 249.197 815.025 246.632 786.23L254.8 446.144C270.914 445.402 291.008 439.577 291.008 439.577L337.937 466.712L334.35 430.463C334.35 430.463 371.25 430.834 397.486 424.02L400.072 424.299Z" fill="url(#paint0_linear_435_1283)"/>
<path d="M221.075 499.755C230.261 602.635 239.787 709.361 246.633 786.23C249.2 815.025 251.386 839.63 253.033 858.284H253.043C255.105 881.522 256.332 895.513 256.435 896.812C256.617 898.58 256.345 900.366 255.645 902C254.945 903.634 253.84 905.063 252.435 906.152C250.821 907.44 248.962 908.387 246.971 908.936C246.971 908.936 221.743 913.792 211.557 913.555C209.442 913.521 207.374 912.922 205.568 911.82C203.763 910.718 202.285 909.152 201.289 907.286C200.364 905.728 199.693 904.034 199.299 902.266L196.381 879.234L154.815 550.599L154.753 549.475C161.522 548.866 168.024 546.54 173.644 542.717C179.263 538.894 183.815 533.701 186.868 527.629C190.016 521.074 191.385 513.807 190.837 506.556L192.754 506.456C200.591 506.942 208.43 505.538 215.611 502.363C217.455 501.558 219.221 500.588 220.889 499.463L221.075 499.755Z" fill="#171717"/>
<path d="M217.023 454.341C214.735 428.659 212.487 403.541 210.343 379.564C207.827 351.398 205.456 324.779 203.301 300.613C197.701 238.054 193.579 191.907 192.311 177.742C192.044 174.742 191.114 171.839 189.589 169.242L148.959 100.249C148.482 99.4378 147.785 98.7783 146.948 98.3476C146.111 97.9169 145.169 97.7328 144.231 97.8166C143.294 97.9004 142.399 98.2487 141.652 98.821C140.904 99.3933 140.335 100.166 140.01 101.049L110.31 181.805C109.253 184.666 108.903 187.739 109.289 190.764L129.445 354.338L143.02 464.485L143.031 464.578" stroke="#171717" stroke-width="3" stroke-linecap="round" stroke-linejoin="round"/>
<path d="M253.034 858.285C251.385 839.635 249.199 815.026 246.634 786.231C239.788 709.362 230.262 602.631 221.076 499.756" stroke="#171717" stroke-width="3" stroke-linecap="round" stroke-linejoin="round"/>
<path d="M154.814 550.6L196.382 879.232L199.3 902.264C199.694 904.032 200.366 905.726 201.29 907.284C202.287 909.15 203.764 910.715 205.57 911.818C207.376 912.92 209.443 913.519 211.558 913.553C221.744 913.79 246.972 908.934 246.972 908.934C248.963 908.385 250.822 907.438 252.436 906.15C253.842 905.061 254.946 903.632 255.646 901.998C256.346 900.364 256.618 898.578 256.436 896.81C256.336 895.51 255.106 881.52 253.044 858.282" stroke="#171717" stroke-width="3" stroke-linecap="round" stroke-linejoin="round"/>
<path d="M608.493 137.628C604.585 134.928 599.234 132.617 591.925 131.228C585.355 129.833 578.559 129.899 572.017 131.423C567.631 132.458 563.51 134.4 559.92 137.124C556.33 139.848 553.35 143.293 551.171 147.239C551.171 147.239 528.613 210.55 492.22 233.839C465.157 251.169 436.3 265.799 392.865 268.376C375.986 269.242 359.062 268.562 342.307 266.345C341.762 259.893 341.6 253.415 341.822 246.945C342.307 238.698 361.222 220.745 364.143 211.037C367.064 201.329 362.679 161.066 362.679 161.066L309.316 177.561L334.348 430.468L337.935 466.717L291.006 439.582L266.623 425.482C266.623 425.482 267.223 344.974 268.159 274.394C268.809 225.815 269.613 181.926 270.5 172.235C272.685 148.461 279.232 140.698 291.851 131.966C304.47 123.234 342.791 127.11 352.493 129.532C362.195 131.954 372.875 139.732 378.205 144.574C383.535 149.416 384.515 161.074 384.515 161.074L392.762 266.356" stroke="#171717" stroke-width="3" stroke-linecap="round" stroke-linejoin="round"/>
<path d="M334.348 430.463C334.348 430.463 371.248 430.834 397.484 424.02C409.031 421.02 418.516 416.628 421.877 410.194C430.393 393.905 392.762 357.553 392.762 357.553C392.762 357.553 508.231 360.873 562.81 296.623C617.389 232.373 618.854 158.885 618.854 158.885C618.854 158.885 620.954 146.246 608.493 137.637" stroke="#171717" stroke-width="3" stroke-linecap="round" stroke-linejoin="round"/>
<path d="M322.419 268.045L342.307 266.344" stroke="#171717" stroke-width="3" stroke-linecap="round" stroke-linejoin="round"/>
<path d="M210.343 379.565L233.632 371.379C233.632 371.379 222.549 430.579 237.509 442.939C240.921 445.764 247.447 446.486 254.798 446.145C270.912 445.403 291.006 439.578 291.006 439.578" stroke="#171717" stroke-width="3" stroke-linecap="round" stroke-linejoin="round"/>
<path d="M383.173 867.44L357.76 862.914L355.409 862.492L332.357 484.178L305.16 871.946L293.025 868.77L253.044 858.285H253.034" stroke="#171717" stroke-width="3" stroke-linecap="round" stroke-linejoin="round"/>
<path d="M400.071 424.299L411.473 812.16" stroke="#171717" stroke-width="3" stroke-linecap="round" stroke-linejoin="round"/>
<path d="M254.808 445.711L254.798 446.144L246.633 786.23" stroke="#171717" stroke-width="3" stroke-linecap="round" stroke-linejoin="round"/>
<path d="M572.017 131.431V131.42C571.46 130.73 547.335 99.8932 551.892 96.2952C556.501 92.6562 581.007 116.183 581.007 116.183C581.007 116.183 577.12 47.2933 582.945 46.8093C588.77 46.3253 592.645 113.275 592.645 113.275C592.645 113.275 594.83 48.2622 600.655 48.9942C606.48 49.7262 602.355 114.494 602.355 114.494C602.355 114.494 614 55.7893 621.029 57.7273C628.019 59.6553 608.761 136.575 608.493 137.627V137.637" stroke="#171717" stroke-width="3" stroke-linecap="round" stroke-linejoin="round"/>
<path d="M319.017 220.744C319.017 220.744 321.749 231.837 335.389 231.29" stroke="#171717" stroke-width="3" stroke-linecap="round" stroke-linejoin="round"/>
<path d="M338.121 208.908L344.853 207.454L340.492 198.176" stroke="#171717" stroke-width="3" stroke-linecap="round" stroke-linejoin="round"/>
<path d="M344.853 184.9C346.358 183.8 348.174 183.207 350.039 183.207C351.903 183.207 353.719 183.8 355.225 184.9" stroke="#171717" stroke-width="3" stroke-linecap="round" stroke-linejoin="round"/>
<path d="M317.017 187.258C317.017 187.258 321.017 183.258 327.203 186.35" stroke="#171717" stroke-width="3" stroke-linecap="round" stroke-linejoin="round"/>
<path d="M338.121 171.98C338.121 171.98 347.761 162.701 358.503 170.887" stroke="#171717" stroke-width="3" stroke-linecap="round" stroke-linejoin="round"/>
<path d="M176.899 477.291C167.865 469.049 156.096 464.449 143.867 464.383" stroke="#171717" stroke-width="3" stroke-linecap="round" stroke-linejoin="round"/>
<path d="M129.443 354.348C113.091 369.338 99.1317 386.37 90.9867 406.855C75.6867 445.341 84.6157 491.343 110.04 524.025C120.009 536.825 133.618 548.397 149.804 549.5C151.452 549.611 153.106 549.604 154.753 549.479C161.522 548.869 168.024 546.543 173.643 542.721C179.263 538.898 183.815 533.705 186.868 527.633C190.016 521.078 191.384 513.811 190.837 506.56C190.302 498.568 187.608 490.872 183.043 484.291C181.252 481.746 179.192 479.403 176.898 477.301" stroke="#171717" stroke-width="3" stroke-linecap="round" stroke-linejoin="round"/>
<path d="M267.551 274.375C244.622 278.694 223.426 288.561 203.301 300.613H203.291" stroke="#171717" stroke-width="3" stroke-linecap="round" stroke-linejoin="round"/>
<path d="M176.899 477.299V477.289C177.136 470.598 178.765 449.721 181.652 443.689C182.312 442.307 183.24 440.802 184.752 440.544C185.419 440.491 186.086 440.631 186.673 440.95C187.261 441.268 187.743 441.751 188.061 442.338C188.685 443.518 189.067 444.81 189.185 446.138C190.154 452.334 191.121 458.531 192.085 464.727C198.452 461.358 205.054 458.454 211.839 456.036C213.501 455.353 215.263 454.942 217.055 454.819H217.097C218 454.77 218.902 454.924 219.737 455.27C220.572 455.617 221.319 456.146 221.921 456.819C222.53 457.707 222.887 458.743 222.952 459.818C223.018 460.892 222.79 461.964 222.293 462.919C221.773 463.975 221.075 464.935 220.231 465.755C219.539 466.44 218.805 467.081 218.031 467.672C212.453 471.982 205.917 474.827 199.453 477.642C199.659 477.611 199.853 477.58 200.053 477.549" stroke="#171717" stroke-width="3" stroke-linecap="round" stroke-linejoin="round"/>
<path d="M220.2 465.774C220.21 465.774 220.22 465.764 220.231 465.764C221.543 465.511 222.902 465.661 224.127 466.195C225.353 466.728 226.388 467.62 227.097 468.753C227.776 469.912 228.196 471.205 228.326 472.542C228.456 473.879 228.293 475.228 227.85 476.496C227.376 477.933 226.661 479.279 225.736 480.476C225.036 481.408 224.252 482.274 223.396 483.063C217.261 488.795 208.735 491.022 200.591 493.053C201.065 492.961 201.529 492.878 202.003 492.785" stroke="#171717" stroke-width="3" stroke-linecap="round" stroke-linejoin="round"/>
<path d="M226.034 480.699C229.096 484.225 228.859 489.799 226.446 493.799C225.024 496.065 223.128 497.996 220.889 499.459C219.221 500.584 217.455 501.555 215.611 502.359C208.43 505.534 200.591 506.938 192.754 506.452" stroke="#171717" stroke-width="3" stroke-linecap="round" stroke-linejoin="round"/>
<path d="M200.4 907.677C192.524 907.863 184.647 908.046 176.77 908.224C173.801 908.285 170.729 908.337 167.976 907.316C165.223 906.295 162.842 903.893 162.924 901.116C163.017 897.755 166.388 895.394 169.424 893.559C177.073 888.92 188.713 883.859 196.383 879.229C196.404 879.218 196.435 879.198 196.456 879.188" stroke="#171717" stroke-width="3" stroke-linecap="round" stroke-linejoin="round"/>
<path d="M292.882 869.326C294.563 874.986 296.264 879.718 295.831 885.574C295.638 888.716 294.704 891.766 293.103 894.476C291.503 897.186 289.282 899.478 286.624 901.162C280.124 905.183 271.406 905.596 263.303 905.833C259.685 905.946 256.063 906.053 252.437 906.152" stroke="#171717" stroke-width="3" stroke-linecap="round" stroke-linejoin="round"/>
<path d="M357.617 863.729C354.812 866.368 352.493 875.348 357.617 883.214" stroke="#171717" stroke-width="3" stroke-linecap="round" stroke-linejoin="round"/>
<path d="M371.416 477.648L359.772 490.003L382.332 498.611L371.416 477.648Z" stroke="#171717" stroke-width="3" stroke-linecap="round" stroke-linejoin="round"/>
<path d="M286.999 519.113L303.009 538.035L278.266 549.582L286.999 519.113Z" stroke="#171717" stroke-width="3" stroke-linecap="round" stroke-linejoin="round"/>
<path d="M392.521 610.809L371.053 633.369L397.615 648.549L392.521 610.809Z" stroke="#171717" stroke-width="3" stroke-linecap="round" stroke-linejoin="round"/>
<path d="M299.37 642.102L267.555 661.751L299.37 682.855V642.102Z" stroke="#171717" stroke-width="3" stroke-linecap="round" stroke-linejoin="round"/>
<path d="M283.463 727.977H303.009L295.895 757.086L283.463 727.977Z" stroke="#171717" stroke-width="3" stroke-linecap="round" stroke-linejoin="round"/>
<path d="M267.555 773.824L278.266 800.751H246.63L267.555 773.824Z" stroke="#171717" stroke-width="3" stroke-linecap="round" stroke-linejoin="round"/>
<path d="M392.521 757.086V804.39L363.412 786.234L392.521 757.086Z" stroke="#171717" stroke-width="3" stroke-linecap="round" stroke-linejoin="round"/>
<path d="M382.332 563.507L374.002 578.789L357.612 541.674L382.332 563.507Z" stroke="#171717" stroke-width="3" stroke-linecap="round" stroke-linejoin="round"/>
<path d="M105.937 335.815L93.7998 323.205" stroke="#171717" stroke-width="3" stroke-linecap="round" stroke-linejoin="round"/>
<path d="M93.3584 338.589L106.525 320.689" stroke="#171717" stroke-width="3" stroke-linecap="round" stroke-linejoin="round"/>
<path d="M73.9894 482.735C65.8369 462.889 65.1421 440.764 72.0334 420.445" stroke="#171717" stroke-width="3" stroke-linecap="round" stroke-linejoin="round"/>
<path d="M41.0566 522.207C60.1876 529.269 76.0286 543.69 87.3266 560.667C98.6246 577.644 105.681 597.111 110.803 616.85C113.603 627.639 115.861 638.972 113.486 649.862C111.111 660.752 102.986 671.098 91.9666 672.792C80.9476 674.486 68.8056 664.274 71.1856 653.384C72.8746 645.655 81.0656 640.448 88.9756 640.605C96.8856 640.762 104.197 645.385 109.283 651.446C119.721 663.886 121.459 682.911 113.448 697.037C106.939 708.515 95.3476 715.979 85.6246 724.899C75.9016 733.819 67.3246 746.414 70.0296 759.329C71.1993 764.335 73.954 768.83 77.884 772.144C81.8139 775.458 86.709 777.415 91.8406 777.723C96.9807 777.797 102.007 776.209 106.172 773.196C110.337 770.182 113.417 765.905 114.956 761C116.667 755.069 115.633 748 111.02 743.895C106.407 739.79 98.0086 740.221 94.9326 745.572" stroke="#171717" stroke-width="3" stroke-linecap="round" stroke-linejoin="round"/>
<path d="M55.2119 746.169L49.7539 728.699" stroke="#171717" stroke-width="3" stroke-linecap="round" stroke-linejoin="round"/>
<path d="M43.2051 741.8C48.222 741.279 52.8782 738.951 56.3051 735.25" stroke="#171717" stroke-width="3" stroke-linecap="round" stroke-linejoin="round"/>
<path d="M78.1362 585.699C77.0377 580.942 74.3398 576.706 70.4932 573.699" stroke="#171717" stroke-width="3" stroke-linecap="round" stroke-linejoin="round"/>
<path d="M67.4355 583.768L82.6736 570.617" stroke="#171717" stroke-width="3" stroke-linecap="round" stroke-linejoin="round"/>
<path d="M615.458 184.914C606.294 175.691 596.999 166.365 585.816 159.732C574.633 153.099 561.17 149.347 548.494 152.239" stroke="#171717" stroke-width="3" stroke-linecap="round" stroke-linejoin="round"/>
<path d="M674.573 235.783C661.973 294.29 677.181 358.166 714.799 404.714C723.145 415.042 732.707 424.687 744.415 430.951C756.123 437.215 770.253 439.805 782.888 435.722C795.523 431.639 806.026 420.07 806.696 406.809C807.366 393.548 796.456 380.132 783.178 380.009C770.555 379.889 760.103 390.794 755.964 402.72C747.348 427.547 759.964 455.326 778.343 474.109C796.722 492.892 820.368 505.509 840.983 521.809C875.44 549.051 902.292 590.716 898.249 634.454C897.116 646.709 893.485 658.94 886.289 668.925C879.093 678.91 868.089 686.452 855.869 687.963C843.649 689.474 830.469 684.315 823.724 674.017C816.979 663.719 818 648.568 827.047 640.223C836.094 631.878 852.447 632.733 859.599 642.753C862.381 646.653 863.683 651.842 862.068 656.353C860.453 660.864 855.474 664.21 850.809 663.117" stroke="#171717" stroke-width="3" stroke-linecap="round" stroke-linejoin="round"/>
<path d="M764.399 366.288L762.943 351.006" stroke="#171717" stroke-width="3" stroke-linecap="round" stroke-linejoin="round"/>
<path d="M770.219 358.282L754.937 356.826" stroke="#171717" stroke-width="3" stroke-linecap="round" stroke-linejoin="round"/>
<path d="M832.807 621.483L840.969 613.152" stroke="#171717" stroke-width="3" stroke-linecap="round" stroke-linejoin="round"/>
<path d="M839.075 622.967L832.146 613.852" stroke="#171717" stroke-width="3" stroke-linecap="round" stroke-linejoin="round"/>
<path d="M531.577 404.846C534.95 415.967 535.952 427.673 534.516 439.206C533.081 450.739 529.241 461.842 523.244 471.797C518.818 479.043 512.894 485.855 504.933 488.807C496.972 491.759 486.725 489.717 482.317 482.461C477.909 475.205 482.728 463.572 491.217 463.368C495.869 463.256 500.198 466.402 502.393 470.505C504.588 474.608 504.906 479.495 504.276 484.105C503.508 489.428 501.572 494.516 498.607 499.004C495.642 503.492 491.721 507.268 487.125 510.063C480.782 513.856 473.125 515.805 468.125 521.248C463.463 526.324 461.977 533.691 462.617 540.548C463.257 547.405 465.786 553.936 468.289 560.358" stroke="#171717" stroke-width="3" stroke-linecap="round" stroke-linejoin="round"/>
<path d="M489.454 417.176L485.06 405.543" stroke="#171717" stroke-width="3" stroke-linecap="round" stroke-linejoin="round"/>
<path d="M481.39 413.041L492.29 407.904" stroke="#171717" stroke-width="3" stroke-linecap="round" stroke-linejoin="round"/>
<path d="M588.355 217.098L588.574 203.275" stroke="#171717" stroke-width="3" stroke-linecap="round" stroke-linejoin="round"/>
<path d="M556.99 181.442L567.178 177.803" stroke="#171717" stroke-width="3" stroke-linecap="round" stroke-linejoin="round"/>
<path d="M563.534 257.299C559.316 257.138 555.106 257.789 551.134 259.216" stroke="#171717" stroke-width="3" stroke-linecap="round" stroke-linejoin="round"/>
<path d="M503.905 278.965L506.813 262.227" stroke="#171717" stroke-width="3" stroke-linecap="round" stroke-linejoin="round"/>
<path d="M471.844 326.263L461.656 321.168" stroke="#171717" stroke-width="3" stroke-linecap="round" stroke-linejoin="round"/>
<path d="M416.681 295.759C418.624 291.333 422.106 287.761 426.481 285.705" stroke="#171717" stroke-width="3" stroke-linecap="round" stroke-linejoin="round"/>
<path d="M409.182 345.972L403.314 338.732" stroke="#171717" stroke-width="3" stroke-linecap="round" stroke-linejoin="round"/>
<path d="M358.293 301.498L365.363 293.314" stroke="#171717" stroke-width="3" stroke-linecap="round" stroke-linejoin="round"/>
<path d="M361.955 346.638L355.405 339.361" stroke="#171717" stroke-width="3" stroke-linecap="round" stroke-linejoin="round"/>
<path d="M360.54 388.886L369.26 380.141" stroke="#171717" stroke-width="3" stroke-linecap="round" stroke-linejoin="round"/>
<path d="M393.249 402.675L387.427 396.125" stroke="#171717" stroke-width="3" stroke-linecap="round" stroke-linejoin="round"/>
<path d="M247.699 427.419L254.977 420.141" stroke="#171717" stroke-width="3" stroke-linecap="round" stroke-linejoin="round"/>
<path d="M250.611 383.025L244.062 379.387" stroke="#171717" stroke-width="3" stroke-linecap="round" stroke-linejoin="round"/>
<path d="M246.244 346.639L252.794 335.723" stroke="#171717" stroke-width="3" stroke-linecap="round" stroke-linejoin="round"/>
<path d="M228.008 335.121C225.302 334.19 223.013 332.331 221.548 329.873" stroke="#171717" stroke-width="3" stroke-linecap="round" stroke-linejoin="round"/>
<path d="M244.062 302.975L249.884 294.242" stroke="#171717" stroke-width="3" stroke-linecap="round" stroke-linejoin="round"/>
<path d="M126.166 423.779L119.617 417.957" stroke="#171717" stroke-width="3" stroke-linecap="round" stroke-linejoin="round"/>
<path d="M97.0576 460.167C98.0784 456.322 100.085 452.81 102.88 449.979" stroke="#171717" stroke-width="3" stroke-linecap="round" stroke-linejoin="round"/>
<path d="M133.445 492.187C130.049 491.097 127.024 489.081 124.712 486.365" stroke="#171717" stroke-width="3" stroke-linecap="round" stroke-linejoin="round"/>
<path d="M155.276 524.208L161.098 516.93" stroke="#171717" stroke-width="3" stroke-linecap="round" stroke-linejoin="round"/>
<path d="M168.321 545.289C173.863 531.838 175.074 516.995 171.786 502.824C168.497 488.653 160.873 475.86 149.974 466.225" stroke="#171717" stroke-width="3" stroke-linecap="round" stroke-linejoin="round"/>
<path fill-rule="evenodd" clip-rule="evenodd" d="M205.117 320.99C204.496 314.026 203.89 307.227 203.3 300.612C200.221 266.214 197.589 236.777 195.632 214.893C194.03 196.977 192.881 184.122 192.309 177.75C192.042 174.75 191.113 171.847 189.587 169.25L148.957 100.257C148.48 99.4456 147.783 98.7861 146.946 98.3554C146.109 97.9248 145.167 97.7406 144.229 97.8244C143.292 97.9082 142.397 98.2566 141.65 98.8289C140.903 99.4012 140.333 100.174 140.008 101.057L110.308 181.813C109.252 184.674 108.901 187.747 109.287 190.772L129.443 354.346L143.019 464.486L143.865 464.386C156.093 464.453 167.863 469.052 176.897 477.294C177.134 470.602 178.763 449.725 181.65 443.694C182.307 442.312 183.235 440.807 184.75 440.549C185.416 440.495 186.083 440.636 186.671 440.955C187.258 441.273 187.741 441.756 188.059 442.343C188.682 443.522 189.065 444.814 189.183 446.143C190.147 452.34 191.114 458.536 192.083 464.732C198.449 461.363 205.051 458.458 211.837 456.041C213.499 455.357 215.26 454.946 217.053 454.824L217.022 454.34C215.157 433.413 213.319 412.855 211.542 392.983C211.138 388.473 210.738 383.999 210.342 379.563C208.515 359.107 206.764 339.467 205.117 320.99ZM182.79 173.646C183.616 173.587 184.238 172.869 184.18 172.043C184.121 171.217 183.404 170.594 182.577 170.653C160.328 172.234 138.219 175.382 116.413 180.076C115.603 180.25 115.088 181.048 115.262 181.858C115.436 182.668 116.234 183.183 117.044 183.009C138.712 178.345 160.682 175.216 182.79 173.646Z" fill="#171717"/>
<g opacity="0.1">
<path d="M253.216 808.978C258.716 786.162 260.709 762.901 263.107 739.587C265.486 716.451 267.594 693.234 269.082 670.024C272.053 623.688 273.813 577.268 273.917 530.833C273.977 504.537 273.482 478.248 272.432 451.967C271.918 439.159 251.932 439.098 252.464 451.967C256.286 544.29 252.471 636.705 245.628 728.8C243.684 754.966 240.705 781.139 241.428 807.383C241.61 813.967 251.582 815.753 253.214 808.978H253.216Z" fill="#171717"/>
</g>
<g opacity="0.1">
<path d="M330.192 486.114C329.134 498.985 330.084 511.961 330.499 524.863C330.914 537.783 331.742 550.698 332.436 563.606C333.79 588.769 335.223 613.928 336.736 639.084C339.803 690.057 343.218 741.007 346.982 791.933C349.127 821.018 351.754 850.096 353.436 879.212C353.745 884.571 357.782 889.149 363.373 889.149C368.309 889.149 373.873 884.583 373.311 879.212C367.885 827.794 364.845 776.03 361.268 724.457C357.735 673.507 354.495 622.541 351.549 571.557C350.714 556.991 350.063 542.406 349.096 527.849C348.126 513.26 347.628 498.505 345.016 484.113C343.403 475.224 330.845 478.184 330.192 486.119V486.114Z" fill="#171717"/>
</g>
<g opacity="0.1">
<path d="M264.354 273.801C248.201 276.067 232.603 283.412 218.189 290.755C204.312 297.975 190.891 306.039 178 314.901C152.543 332.101 128.946 352.248 110.843 377.244C93.0952 401.751 81.6652 433.144 82.3282 463.599C82.9532 492.36 94.2632 523.691 119.574 539.644C125.871 543.656 132.961 546.26 140.358 547.277C147.755 548.294 155.284 547.701 162.43 545.538C174.095 541.873 196.336 528.038 187.192 513.405C186.447 512.184 185.33 511.235 184.006 510.696C182.682 510.158 181.22 510.057 179.834 510.411C176.905 511.191 174.586 511.911 172.444 514.292C170.691 516.238 169.699 518.348 167.893 520.169C164.566 523.41 160.457 525.736 155.965 526.92C146.517 529.569 137.217 527.669 128.893 522.255C109.1 509.381 101.832 482.627 101.993 460.344C102.387 405.488 140.893 362.392 183.443 332.486C196.161 323.534 209.35 315.27 222.951 307.729C237.566 299.64 252.678 293.644 268.098 287.353C276.548 283.906 273.35 272.531 264.36 273.793L264.354 273.801Z" fill="#171717"/>
</g>
<g opacity="0.1">
<path d="M239.175 372.328C232.904 372.517 230.747 379.38 228.808 384.308C226.524 390.561 225.406 397.179 225.508 403.835C225.549 410.297 226.452 416.724 228.194 422.946C229.85 429.084 232.068 437.593 237.274 441.619C240.42 444.052 243.904 445.338 247.822 443.619C251.143 442.159 254.009 438.647 253.758 434.794C253.358 428.694 249.822 423.294 248.071 417.469C246.503 412.217 245.51 406.811 245.109 401.344C244.7 395.865 244.597 390.326 244.671 384.833C244.725 380.854 245.663 372.133 239.171 372.333L239.175 372.328Z" fill="#171717"/>
</g>
</g>
<defs>
<linearGradient id="paint0_linear_435_1283" x1="329.052" y1="424.02" x2="329.052" y2="871.945" gradientUnits="userSpaceOnUse">
<stop stop-color="#FFB800"/>
<stop offset="1" stop-color="#FF7F0A"/>
</linearGradient>
<clipPath id="clip0_435_1283">
<rect width="883" height="871" fill="white" transform="translate(39 45)"/>
</clipPath>
</defs>
</svg>
